<svg fill="none" height="30" viewBox="0 0 30 30" width="30" xmlns="http://www.w3.org/2000/svg"><path d="m27.3724 1.15039h-23.79186c-.39121 0-.7664.15541-1.04303.43204s-.43204.65182-.43204 1.04304v23.79413c0 .3912.15541.7664.43204 1.043s.65182.432 1.04303.432h12.80366v-10.355h-3.4812v-4.0372h3.4812v-2.9773c0-3.45399 2.1105-5.33527 5.1923-5.33527 1.0399-.00371 2.0793.04932 3.1135.15885v3.61053h-2.1309c-1.6771 0-2.0016.79654-2.0016 1.96529v2.5779h3.9963l-.5196 4.0372h-3.4767v10.3573h6.808c.3911-.0006.7659-.1562 1.0424-.4327s.4321-.6513.4327-1.0424v-23.79407c.0006-.39043-.1536-.76517-.4288-1.0421-.2752-.27692-.649-.43344-1.0394-.43524z" fill="#491d01" fill-opacity=".8"/></svg>