<svg width="29" height="29" viewBox="0 0 29 29" fill="none" xmlns="http://www.w3.org/2000/svg">
<path d="M19.3333 14.5005V14.4993C19.3332 13.3811 18.9455 12.2975 18.2361 11.4331C17.5268 10.5688 16.5396 9.97714 15.4429 9.75898C14.3462 9.54082 13.2078 9.70966 12.2217 10.2367C11.2355 10.7638 10.4626 11.6165 10.0346 12.6495C9.60667 13.6826 9.55012 14.832 9.87463 15.9021C10.1991 16.9722 10.8846 17.8966 11.8143 18.5179C12.7439 19.1392 13.8603 19.419 14.9731 19.3096C16.0859 19.2001 17.1263 18.7082 17.9171 17.9176C18.3658 17.4839 18.7225 16.9642 18.9658 16.3895C19.2091 15.8148 19.3341 15.197 19.3333 14.573L19.3321 14.4968L19.3333 14.5005ZM21.9433 14.5005C21.9375 16.2144 21.3379 17.8734 20.2467 19.1951C19.1554 20.5168 17.6399 21.4196 15.958 21.7497C14.2761 22.0798 12.5318 21.8169 11.0219 21.0058C9.51204 20.1947 8.32988 18.8854 7.67662 17.3008C7.02337 15.7162 6.93939 13.9541 7.43898 12.3146C7.93857 10.675 8.99086 9.25926 10.4168 8.3082C11.8427 7.35714 13.5541 6.92956 15.2597 7.09823C16.9654 7.26691 18.5599 8.02141 19.7719 9.23334C20.4602 9.90121 21.0072 10.7006 21.3804 11.5841C21.7536 12.4675 21.9455 13.417 21.9445 14.376L21.9433 14.5077V14.5017V14.5005ZM23.9817 6.75988V6.7623C23.9819 7.16486 23.8424 7.55502 23.5871 7.86629C23.3318 8.17755 22.9765 8.39067 22.5817 8.46933C22.1869 8.54798 21.777 8.48731 21.422 8.29764C21.0669 8.10798 20.7885 7.80106 20.6344 7.42918C20.4802 7.0573 20.4598 6.64347 20.5765 6.25821C20.6933 5.87295 20.94 5.54009 21.2747 5.31635C21.6093 5.09261 22.0112 4.99184 22.4119 5.0312C22.8125 5.07056 23.1871 5.24762 23.4718 5.53221C23.7812 5.83551 23.9733 6.25842 23.9733 6.72605V6.76109L23.9817 6.75988ZM14.5084 2.60321L13.0645 2.59355C12.1896 2.5871 11.5254 2.5871 11.0719 2.59355C10.6184 2.59999 10.011 2.61892 9.24974 2.65034C8.54287 2.67451 7.87224 2.74459 7.21612 2.85576L7.30433 2.84367C6.79078 2.92826 6.33524 3.04909 5.89903 3.2098L5.95099 3.19288C5.33475 3.44061 4.77435 3.80922 4.30285 4.27699C3.83134 4.74476 3.45828 5.30221 3.20566 5.91646L3.19358 5.94909C3.03848 6.37359 2.92359 6.81173 2.85041 7.25771L2.84437 7.30242C2.73689 7.93734 2.6727 8.57884 2.65224 9.22246L2.65103 9.24784C2.61962 10.0099 2.60069 10.6173 2.59424 11.07C2.5878 11.5227 2.5878 12.1869 2.59424 13.0625C2.60069 13.9382 2.60391 14.4195 2.60391 14.5065C2.60391 14.5935 2.60069 15.0748 2.59424 15.9505C2.5878 16.8261 2.5878 17.4903 2.59424 17.943C2.60069 18.3957 2.61962 19.0031 2.65103 19.7652C2.6752 20.472 2.74528 21.1427 2.85645 21.7988L2.84437 21.7106C2.92895 22.2241 3.04978 22.6797 3.21049 23.1159L3.19358 23.0639C3.4413 23.6802 3.80992 24.2406 4.27769 24.7121C4.74546 25.1836 5.30291 25.5566 5.91716 25.8093L5.94978 25.8213C6.33403 25.9651 6.78958 26.086 7.25841 26.1645L7.30312 26.1705C7.86983 26.2696 8.54045 26.3397 9.22195 26.3627L9.24733 26.3639C10.0094 26.3953 10.6168 26.4142 11.0695 26.4207C11.5222 26.4271 12.1864 26.4271 13.062 26.4207L14.4975 26.3917L15.9415 26.4013C16.8163 26.4078 17.4805 26.4078 17.934 26.4013C18.3876 26.3949 18.995 26.376 19.7562 26.3445C20.4631 26.3204 21.1337 26.2503 21.7898 26.1391L21.7016 26.1512C22.2152 26.0666 22.6707 25.9458 23.1069 25.7851L23.055 25.802C23.6712 25.5543 24.2316 25.1857 24.7031 24.7179C25.1746 24.2501 25.5477 23.6927 25.8003 23.0784L25.8124 23.0458C25.9562 22.6615 26.077 22.206 26.1555 21.7372L26.1616 21.6925C26.2607 21.1258 26.3307 20.4551 26.3537 19.7736L26.3549 19.7483C26.3863 18.9862 26.4053 18.3788 26.4117 17.9261C26.4181 17.4734 26.4181 16.8092 26.4117 15.9335C26.4053 15.0579 26.402 14.5766 26.402 14.4896C26.402 14.4026 26.4053 13.9213 26.4117 13.0456C26.4181 12.17 26.4181 11.5058 26.4117 11.0531C26.4053 10.6004 26.3863 9.99298 26.3549 9.23092C26.3307 8.52405 26.2607 7.85342 26.1495 7.1973L26.1616 7.2855C26.0849 6.80641 25.9623 6.3358 25.7955 5.88021L25.8124 5.93217C25.5646 5.31593 25.196 4.75553 24.7283 4.28402C24.2605 3.81252 23.703 3.43946 23.0888 3.18684L23.0562 3.17476C22.6317 3.01966 22.1935 2.90477 21.7475 2.83159L21.7028 2.82555C21.0683 2.71813 20.4272 2.65394 19.784 2.63342L19.7586 2.63221C18.9966 2.6008 18.3892 2.58187 17.9365 2.57542C17.4837 2.56898 16.8195 2.56898 15.9439 2.57542L14.5084 2.60321ZM29 14.5005C29 17.3827 28.9677 19.3777 28.9033 20.4853C28.9604 21.6079 28.781 22.7299 28.3768 23.7786C27.9726 24.8274 27.3525 25.7795 26.5568 26.5733C25.761 27.3671 24.8074 27.9849 23.7576 28.3865C22.7079 28.7882 21.5855 28.9649 20.4631 28.905L20.4824 28.9062C19.3748 28.9707 17.3798 29.0029 14.4975 29.0029C11.6153 29.0029 9.6203 28.9707 8.51266 28.9062C7.39014 28.9633 6.26814 28.784 5.21938 28.3797C4.17061 27.9755 3.21848 27.3554 2.42468 26.5597C1.63088 25.7639 1.01313 24.8103 0.611452 23.7606C0.209776 22.7108 0.0331409 21.5884 0.0929922 20.466L0.0917839 20.4853C0.0273394 19.3777 -0.00488281 17.3827 -0.00488281 14.5005C-0.00488281 11.6182 0.0273394 9.62323 0.0917839 8.51559C0.0346677 7.39307 0.214038 6.27107 0.61827 5.22231C1.0225 4.17354 1.64258 3.22141 2.43831 2.42761C3.23405 1.63381 4.18769 1.01606 5.23744 0.614382C6.28719 0.212706 7.40962 0.0360706 8.53199 0.0959219L8.51266 0.0947135C9.6203 0.0302691 11.6153 -0.00195312 14.4975 -0.00195312C17.3798 -0.00195312 19.3748 0.0302691 20.4824 0.0947135C21.6049 0.0375974 22.7269 0.216967 23.7757 0.6212C24.8245 1.02543 25.7766 1.64551 26.5704 2.44124C27.3642 3.23698 27.9819 4.19062 28.3836 5.24037C28.7853 6.29011 28.9619 7.41255 28.9021 8.53492L28.9033 8.51559C28.9677 9.62242 29 11.6174 29 14.5005Z" fill="#491D01" fill-opacity="0.8"/>
</svg>
